<?xml version="1.0" encoding="UTF-8" standalone="no"?>
<svg
   xmlns:dc="http://purl.org/dc/elements/1.1/"
   xmlns:cc="http://creativecommons.org/ns#"
   xmlns:rdf="http://www.w3.org/1999/02/22-rdf-syntax-ns#"
   xmlns:svg="http://www.w3.org/2000/svg"
   xmlns="http://www.w3.org/2000/svg"
   height="298.70096"
   width="371.78268"
   version="1.0"
   viewBox="0 0 371.78268 298.70097"
   id="svg2">
  <defs
     id="defs10" />
  <g
     transform="translate(-135.88002,-271.18193)"
     id="layer1">
    <path
       id="path3698"
       style="fill:#ff0000;fill-rule:evenodd;stroke:#000000;stroke-width:5;stroke-linecap:round;stroke-linejoin:round;stroke-miterlimit:4;stroke-dasharray:none"
       d="m 463.26,348.65 c -3.51,-8.235 -56.025,-68.57 -97.15,-74.29 -41.125,-5.72 -70,26.43 -75.71,31.43 -5.71,5 -19.99667,41.50215 -27.86,62.86 -7.86333,21.35785 -13.56057,49.38469 -19.28,65 -5.71943,15.61531 -8.58173,21.21598 -12.86,29.28 -4.27827,8.06402 -8.35861,14.21376 -12.14,19.29 -3.78139,5.07624 -6.85181,9.09542 -10,11.43 -3.14819,2.33458 -5.58184,2.03174 -7.59117,3.42769 -2.00933,1.39595 -4.56978,3.60974 -4.46883,4.51231 0.10095,0.90257 -11.935,13.56 10.63,17.32 22.565,3.76 43.215,-4.55 70,-19.55 26.785,-15 27.5,-30.895 32.14,-41.43 4.64,-10.535 -3.15622,-43.91377 -6.14538,-46.67194 25.84027,-66.90065 106.67728,-31.43996 150.11238,-39.40135 11.38988,-2.0877 13.74253,-7.73567 10.323,-23.20671 z" />
    <path
       id="path2801"
       d="m 306.31529,453.70534 c -0.39895,-1.24937 -1.60632,-2.00529 -3.19166,-2.00529 -1.97379,0 -2.56172,0.55644 -2.56172,2.45674 0,3.83209 -1.24937,4.15756 -3.7691,0.98689 l -2.32026,-2.90819 -1.94229,3.40164 c -3.34914,5.87938 -7.20224,3.46463 -6.03686,-3.7901 0.62993,-3.95808 0.47245,-4.37803 -2.09978,-5.35443 -4.48302,-1.70082 -4.55651,-4.04207 -0.26247,-8.10514 2.11028,-1.98429 3.83209,-3.95808 3.83209,-4.38853 0,-1.95279 -2.62472,-3.02368 -6.23633,-2.54073 -5.11296,0.69293 -6.42532,-1.8793 -3.19166,-6.25734 2.71921,-3.6746 2.36225,-7.17073 -0.89241,-8.78756 -1.50134,-0.73492 -2.01578,-1.49084 -1.31236,-1.9213 1.8688,-1.15487 1.30186,-4.14706 -1.49084,-7.93715 -5.12346,-6.93977 -2.70871,-9.75347 5.96337,-6.96076 7.67468,2.47773 8.89255,2.26775 9.66947,-1.64833 0.60893,-3.02368 0.12598,-3.91608 -4.81899,-8.92405 -5.13395,-5.20745 -5.37543,-5.6694 -3.7271,-7.31772 1.48034,-1.49084 2.37274,-1.58533 5.55391,-0.60894 3.28615,1.00789 4.05257,0.89241 5.81638,-0.86091 1.11288,-1.11288 2.01578,-2.7822 2.01578,-3.7166 0,-1.67982 1.22837,-1.65883 5.43843,0.084 1.13388,0.47245 2.42524,-0.0525 3.67461,-1.50134 5.90037,-6.82428 10.20491,-10.01594 15.31787,-11.3178 4.17855,-1.07088 6.07885,-1.11288 8.34661,-0.17848 3.96858,1.64833 6.48831,-0.34646 5.6694,-4.49352 -0.69293,-3.43314 1.10238,-3.91609 5.01846,-1.34386 3.17067,2.07878 6.21534,0.9659 5.51192,-2.00529 -1.55384,-6.5513 -1.9003,-12.1997 -0.74542,-12.1997 2.18377,0 6.82427,2.88719 9.97394,6.20484 3.50663,3.68511 5.28094,4.06307 6.77178,1.40685 0.59844,-1.07088 2.26776,-1.8373 3.98957,-1.8373 2.80321,0 2.93969,-0.22048 2.75071,-4.46203 -0.25197,-5.82688 1.78481,-5.90037 7.14974,-0.26247 5.38593,5.6694 7.72718,5.6484 6.81378,-0.0525 -0.78742,-4.91347 2.56173,-14.1 4.86098,-13.34408 2.03679,0.67193 3.91609,5.10246 3.93708,9.24952 0.021,5.32293 1.49085,6.24684 9.84796,6.24684 6.38332,0 8.16813,0.47245 14.00551,3.67461 9.06054,4.98697 13.21809,4.90297 15.9688,-0.32547 2.02629,-3.84259 3.71661,-2.21526 3.38064,3.26515 -0.44095,7.20224 0.45145,9.13403 4.23105,9.13403 2.17327,0 4.10507,-0.98689 6.08936,-3.10767 3.34914,-3.58012 4.23105,-3.21266 4.23105,1.74282 0,4.99747 2.49873,5.56441 6.68779,1.51184 1.8688,-1.81631 3.95808,-3.29665 4.6405,-3.29665 0.68243,0 1.55384,1.8898 1.9213,4.17855 1.12338,7.03426 2.97118,7.43321 8.16813,1.77431 4.97647,-5.42792 6.33083,-5.90037 7.97915,-2.8137 0.83991,1.57484 0.71393,2.8662 -0.49345,5.19695 -2.14177,4.16806 -2.01578,5.31244 0.57744,5.31244 1.8898,0 2.08928,0.44095 1.48035,3.22315 -0.59844,2.70872 -0.35697,3.31765 1.49084,3.8006 1.20737,0.31497 2.19426,1.18637 2.19426,1.94229 0,0.74542 3.03418,2.37275 6.72979,3.60112 7.60119,2.53023 16.66173,8.09464 16.07379,9.87945 -0.61943,1.8898 -5.83738,1.99479 -10.3099,0.20998 -8.55659,-3.42264 -9.27052,-1.53284 -3.04468,8.05264 6.37282,9.79546 5.6904,11.18131 -3.08667,6.29933 -4.12606,-2.28875 -5.44892,-2.61422 -6.49881,-1.58533 -1.03939,1.03939 -0.73492,2.92919 1.54334,9.37551 3.45413,9.80595 2.51973,11.97922 -2.9082,6.71928 -5.01846,-4.86098 -6.89776,-3.89508 -6.89776,3.56962 0,3.19166 -0.43046,5.80589 -0.9554,5.80589 -4.735,0 -7.84267,-5.51192 -6.85577,-12.12622 0.65093,-4.28354 0.52494,-4.672 -1.53284,-4.672 -1.52234,0 -2.7927,1.17588 -3.98958,3.67461 -3.21265,6.75078 -8.3991,3.84259 -7.21273,-4.05257 0.55644,-3.7166 0.35696,-4.735 -1.01839,-5.27044 -1.99479,-0.75592 -3.59062,0.021 -5.52241,2.69821 -2.93969,4.07357 -8.60909,0.76642 -8.60909,-5.00796 0,-1.8898 -0.79791,-4.24155 -1.78481,-5.22845 -1.69032,-1.69032 -1.95279,-1.60633 -4.53552,1.50134 -1.51184,1.80581 -3.25465,3.28615 -3.87409,3.28615 -1.61682,0 -2.37274,-2.55123 -1.27036,-4.29404 1.37535,-2.16277 1.17587,-3.7376 -0.68243,-5.59591 -2.35175,-2.36224 -4.12606,-2.04728 -5.50141,0.9659 -3.32815,7.30722 -11.61177,-2.37275 -13.02912,-15.22338 -0.19948,-1.76381 -0.9344,-2.62472 -2.26776,-2.62472 -1.8898,0 -3.43313,3.51712 -5.30193,12.07372 -1.10239,5.06046 -2.28876,5.94236 -4.88199,3.63261 -1.27036,-1.12338 -3.22315,-4.09457 -4.33604,-6.5828 -2.7822,-6.20484 -5.42792,-5.7009 -5.86887,1.12338 -0.17848,2.74021 -0.78742,4.97647 -1.34386,4.97647 -0.56694,0 -2.02628,-1.66932 -3.23366,-3.7271 -3.00268,-5.08146 -5.50141,-4.48303 -5.93186,1.43834 -0.38846,5.39643 -2.46724,6.6353 -5.82689,3.47513 -3.53812,-3.31764 -4.87148,-2.8032 -4.87148,1.8793 0,7.08675 -0.69292,7.85317 -4.90298,5.36493 -1.98429,-1.16537 -4.05257,-2.13127 -4.59851,-2.13127 -1.8478,0 -1.00789,3.7796 1.63783,7.35972 1.49084,2.01578 2.22576,3.95808 1.71132,4.47252 -1.07089,1.07089 -6.47782,-1.25986 -11.58027,-5.00796 -6.6038,-4.83999 -9.30202,-2.34126 -4.93448,4.56701 l 2.66672,4.23105 -6.71929,-0.49345 c -6.09985,-0.45145 -6.77178,-0.29397 -7.40171,1.69032 -0.41996,1.32286 0,3.24416 1.04989,4.85049 2.15227,3.28615 1.34385,4.32554 -1.99479,2.53023 -4.48303,-2.39375 -6.02636,1.16538 -3.28615,7.5592 0.62993,1.48034 0.26247,1.8373 -1.8688,1.8373 -3.44364,0 -5.43843,5.46992 -4.44103,12.15771 0.79791,5.29144 -0.51445,6.11035 -3.20216,2.01578 -2.01579,-3.07617 -4.14706,-3.37014 -5.54341,-0.76641 -0.67193,1.25986 -0.53545,2.68771 0.45145,4.46202 0.78742,1.43835 1.45934,2.97119 1.48034,3.42264 0.0735,1.54333 -5.13395,-2.59323 -5.76389,-4.58801 z"
       style="fill:#ffffff;stroke:#000000;stroke-width:5.2494421;stroke-linecap:round;stroke-linejoin:round;stroke-miterlimit:4;stroke-dasharray:none;stroke-opacity:1" />
    <path
       id="path18"
       d="m 178.22179,490.85383 c 0,0 2.75,3.48999 1.53,6.44 -1.22,2.95001 -0.505,5 2.02,5 2.525,0 7.33876,-1.98467 7.33876,-6.36967 0,-4.385 4.63015,-6.9334 7.19124,-4.21033 0,0 1.95,1.515 1.95,10.03 0,8.515 -1.33,10.66 6.53,10.37 7.86,-0.29 11.125,8.785 4.85,10.07 -6.275,1.285 -4.395,4.11 -2.41,4.11 1.985,0 2.56,0.475 4.58,1.52 2.02,1.045 2.95,1.56 2.95,5.04 -1.75575,3.48602 -5.96497,4.87217 -9.5,2.44 -4.03,-2.665 -8.615,4.245 -4.63,8.36 3.985,4.115 2.985,3.45 1.79,5.08 -1.195,1.63 -0.89,1.88 -9.38,1.14 -8.49,-0.74 -9.835,1.8 -5.89,6.19 3.945,4.39 3.845,2.41 2.5,6 -1.345,3.59 -7.785,3.985 -11.1,-3.75 -3.315,-7.735 -6.79,-8.495 -6.79,2.53 0,11.025 -10.01,4.78 -10.01,4.78 -1.8836,-2.95995 -2.015,-7.79 -0.43,-18.17 1.585,-10.38 -3.675,-5.615 -6.8,-1.11 -3.125,4.505 -7.07,5.95 -8.25,5.95 -1.18,0 -2.0633,-5.97421 0.7567,-9.32421 2.82,-3.35 3.6133,-6.34079 0.6933,-6.75579 -2.92,-0.415 -9.08674,-2.13747 -7.9614,-5.07678 1.16242,-3.03614 4.91264,-2.62776 8.63264,-2.96776 3.72001,-0.34 9.62876,-0.45546 2.17876,-5.22546 -7.45,-4.77 -14.12306,-13.12926 -11.65876,-15.02579 0,0 5.17376,-1.89421 9.30876,2.33579 4.135,4.23 9.21,3.53 6,-1.37 -3.21,-4.9 -3.36,-11.595 -1.2,-13.39 2.16,-1.795 4.26,-1.125 6.7,5.64 2.44,6.765 3.615,8.635 5.75,8.96 2.135,0.325 2.52533,-4.71797 2.75744,-9.96388 0.2321,-5.24592 -0.14612,-8.2529 3.15388,-10.8429 3.3,-2.59 6.0667,0.28669 6.84868,1.56678 z"
       style="fill:#ffffff;stroke:#000000;stroke-width:5;stroke-linecap:round;stroke-linejoin:round;stroke-miterlimit:4;stroke-dasharray:none;stroke-opacity:1" />
  </g>
  <metadata
     id="metadata7">
    <rdf:RDF>
      <cc:Work>
        <dc:format>image/svg+xml</dc:format>
        <dc:type
           rdf:resource="http://purl.org/dc/dcmitype/StillImage" />
        <cc:license
           rdf:resource="http://creativecommons.org/publicdomain/zero/1.0/" />
        <dc:publisher>
          <cc:Agent
             rdf:about="http://openclipart.org/">
            <dc:title>Openclipart</dc:title>
          </cc:Agent>
        </dc:publisher>
        <dc:title></dc:title>
        <dc:date>2006-11-03T10:07:29</dc:date>
        <dc:description>Just a nice red santa hat for your using pleasure :-)</dc:description>
        <dc:source>https://openclipart.org/detail/1213/santa-hat-by-stephantom</dc:source>
        <dc:creator>
          <cc:Agent>
            <dc:title>stephantom</dc:title>
          </cc:Agent>
        </dc:creator>
        <dc:subject>
          <rdf:Bag>
            <rdf:li>cap</rdf:li>
            <rdf:li>christmas</rdf:li>
            <rdf:li>claus</rdf:li>
            <rdf:li>clause</rdf:li>
            <rdf:li>hat</rdf:li>
            <rdf:li>santa</rdf:li>
            <rdf:li>winter</rdf:li>
            <rdf:li>xmas</rdf:li>
          </rdf:Bag>
        </dc:subject>
      </cc:Work>
      <cc:License
         rdf:about="http://creativecommons.org/publicdomain/zero/1.0/">
        <cc:permits
           rdf:resource="http://creativecommons.org/ns#Reproduction" />
        <cc:permits
           rdf:resource="http://creativecommons.org/ns#Distribution" />
        <cc:permits
           rdf:resource="http://creativecommons.org/ns#DerivativeWorks" />
      </cc:License>
    </rdf:RDF>
  </metadata>
</svg>
